:SAMPLES-PER-SECOND 30
:FULLY-SPECIFIED
:DEGREES
507
root  -38.5316 34.5719 6.56977 -175.806 42.4539 178.545
RightUpLeg  -21.6767 -26.9063 2.61179
RightLeg  11.5057 -5.48466 -0.750685
RightFoot  13.5127 0.197824 -1.10477
RightToes  -18.5072 -0.0732945 -0.164713
Spine  -0.447688 1.33147 -1.4294
Spine1  -0.960365 2.77851 -2.13953
HEad  -48.7681 -7.2517 10.227
LeftShoulder1  -1.94126e-019 -3.10601e-018 -2.51263e-017
LeftArm  12.3155 31.6062 -69.4591
LeftForeArm  123.078 -74.5594 -136.541
LeftHand  0.135153 -0.0560883 -2.8995
RightShoulder  -4.96962e-017 0 -2.36833e-017
RightArm  20.2586 -20.4134 72.2334
RightForeArm  138.045 79.9294 116.033
RightHand  0.13097 2.21567 1.81773
LeftUpLeg  -8.13526 3.37142 -7.23447
LeftLeg  13.3056 20.4195 3.38388
LeftFoot  -4.43251 -0.0761045 -1.50158
LeftToes  -2.13018 1.49739e-006 1.00523e-007
508
root  -38.568 34.573 6.53406 -175.679 42.9959 178.629
RightUpLeg  -21.616 -24.0995 1.49525
RightLeg  12.2491 -3.64267 -0.547214
RightFoot  14.0878 0.157126 -0.716573
RightToes  -20.92 -0.0866467 -0.184178
Spine  -0.49601 1.25544 -1.37187
Spine1  -1.04971 2.62517 -2.02329
HEad  -48.4933 -6.65052 9.93995
LeftShoulder1  -1.94126e-019 -3.10601e-018 -2.51263e-017
LeftArm  12.9825 31.2937 -69.6322
LeftForeArm  123.817 -74.3597 -137.261
LeftHand  0.135546 0.760838 -3.54574
RightShoulder  -4.96962e-017 0 -2.36833e-017
RightArm  20.3557 -20.715 71.8395
RightForeArm  138.089 79.8648 116.527
RightHand  0.121752 2.07275 1.72142
LeftUpLeg  -8.19401 3.71399 -7.27582
LeftLeg  13.277 20.6027 3.40256
LeftFoot  -4.40592 -0.0760519 -1.50817
LeftToes  -1.75683 1.49739e-006 1.00523e-007
509
root  -38.5963 34.5719 6.48908 -175.563 43.5565 178.619
RightUpLeg  -21.3541 -20.5942 0.0808254
RightLeg  12.6706 -1.47607 -0.232737
RightFoot  14.4272 0.0947042 -0.205015
RightToes  -23.1724 -0.0998405 -0.201827
Spine  -0.573512 1.16092 -1.31332
Spine1  -1.19713 2.43173 -1.90281
HEad  -48.1219 -6.06462 9.69957
LeftShoulder1  -1.94126e-019 -3.10601e-018 -2.51263e-017
LeftArm  13.8666 31.3014 -69.6936
LeftForeArm  123.342 -74.3715 -137.137
LeftHand  0.121323 0.36172 -2.87605
RightShoulder  -4.96962e-017 0 -2.36833e-017
RightArm  20.4963 -20.8568 71.4147
RightForeArm  139.172 79.7417 117.798
RightHand  0.124927 1.96641 1.80593
LeftUpLeg  -8.24289 3.90059 -7.39584
LeftLeg  13.1708 20.9545 3.41907
LeftFoot  -4.36807 -0.0753137 -1.52494
LeftToes  -1.49091 1.49739e-006 1.00523e-007
510
root  -38.6113 34.5665 6.4347 -175.44 43.9826 178.605
RightUpLeg  -20.9826 -17.6464 -1.16635
RightLeg  12.693 0.76542 0.121933
RightFoot  14.4598 0.0234555 0.34601
RightToes  -25.322 -0.11307 -0.218174
Spine  -0.660198 1.03413 -1.26418
Spine1  -1.36126 2.17097 -1.79952
HEad  -47.7684 -5.56434 9.60153
LeftShoulder1  -1.94126e-019 -3.10601e-018 -2.51263e-017
LeftArm  14.3291 31.4245 -69.6361
LeftForeArm  123.519 -74.2671 -137.468
LeftHand  0.121643 0.581676 -3.08562
RightShoulder  -4.96962e-017 0 -2.36833e-017
RightArm  20.5388 -20.9401 71.055
RightForeArm  140.538 79.6267 119.056
RightHand  0.126685 2.06353 1.80131
LeftUpLeg  -8.26899 4.07003 -7.50472
LeftLeg  13.052 21.1659 3.408
LeftFoot  -4.44845 -0.0723612 -1.57532
LeftToes  -1.1446 1.49739e-006 1.00523e-007
511
root  -38.6125 34.5576 6.37282 -175.339 44.2615 178.532
RightUpLeg  -20.4704 -15.3566 -2.2021
RightLeg  12.2822 2.82411 0.427613
RightFoot  14.1576 -0.0395927 0.838356
RightToes  -27.0548 -0.124175 -0.230984
Spine  -0.757673 0.896394 -1.22942
Spine1  -1.54847 1.88893 -1.72506
HEad  -47.4674 -5.34157 9.60663
LeftShoulder1  -1.94126e-019 -3.10601e-018 -2.51263e-017
LeftArm  14.7101 31.5597 -69.4816
LeftForeArm  123.121 -74.1468 -137.734
LeftHand  0.125129 0.670393 -3.20493
RightShoulder  -4.96962e-017 0 -2.36833e-017
RightArm  20.5405 -21.0803 70.7749
RightForeArm  141.845 79.4836 120.426
RightHand  0.139545 2.25337 1.93594
LeftUpLeg  -8.30051 4.206 -7.64268
LeftLeg  12.9455 21.2892 3.38735
LeftFoot  -4.51873 -0.0700689 -1.61426
LeftToes  -0.847348 1.49739e-006 1.00523e-007
512
root  -38.5958 34.5546 6.30745 -175.221 44.4226 178.458
RightUpLeg  -19.9721 -14.3613 -2.70951
RightLeg  11.5249 3.96169 0.546163
RightFoot  14.0079 -0.0722527 1.10138
RightToes  -28.9634 -0.136849 -0.244697
Spine  -0.864125 0.784908 -1.21482
Spine1  -1.75541 1.66194 -1.6925
HEad  -47.2307 -5.33909 9.74037
LeftShoulder1  -1.94126e-019 -3.10601e-018 -2.51263e-017
LeftArm  15.1609 31.5732 -69.174
LeftForeArm  122.895 -74.0524 -137.955
LeftHand  0.131904 0.751342 -3.44483
RightShoulder  -4.96962e-017 0 -2.36833e-017
RightArm  20.665 -21.3209 70.5508
RightForeArm  142.869 79.3507 121.587
RightHand  0.148053 2.35942 2.02809
LeftUpLeg  -8.27673 4.33694 -7.76325
LeftLeg  12.7275 21.3191 3.31089
LeftFoot  -4.5173 -0.0701161 -1.61602
LeftToes  -0.620725 1.49739e-006 1.00523e-007
513
root  -38.5614 34.574 6.24549 -174.944 44.543 178.58
RightUpLeg  -19.4406 -14.5827 -2.45652
RightLeg  10.164 3.87894 0.44145
RightFoot  14.3138 -0.0733706 1.0982
RightToes  -27.9679 -0.133602 -0.249315
Spine  -0.974676 0.715465 -1.17125
Spine1  -1.97087 1.52077 -1.60303
HEad  -46.9947 -5.52287 9.89476
LeftShoulder1  -1.94126e-019 -3.10601e-018 -2.51263e-017
LeftArm  15.617 31.4684 -68.8602
LeftForeArm  122.952 -74.0708 -137.911
LeftHand  0.147272 0.703338 -3.78706
RightShoulder  -4.96962e-017 0 -2.36833e-017
RightArm  20.7297 -21.6394 70.4637
RightForeArm  143.257 79.3338 121.81
RightHand  0.149356 2.40143 2.03306
LeftUpLeg  -8.19502 4.19864 -7.71584
LeftLeg  12.3808 21.5674 3.21749
LeftFoot  -4.37587 -0.0665878 -1.58119
LeftToes  -0.359668 1.49739e-006 1.00523e-007
514
root  -38.5162 34.6014 6.18829 -174.529 44.6031 178.884
RightUpLeg  -18.5698 -14.3775 -2.18379
RightLeg  8.24683 3.53604 0.28331
RightFoot  14.8792 -0.0676556 1.04447
RightToes  -27.4919 -0.127037 -0.251099
Spine  -1.08183 0.671151 -1.07062
Spine1  -2.17732 1.43001 -1.3992
HEad  -46.8635 -5.83303 9.99341
LeftShoulder1  -1.94126e-019 -3.10601e-018 -2.51263e-017
LeftArm  15.9001 31.3043 -68.6635
LeftForeArm  123.48 -74.0458 -138.073
LeftHand  0.159235 1.10534 -4.53978
RightShoulder  -4.96962e-017 0 -2.36833e-017
RightArm  20.7924 -21.9554 70.3445
RightForeArm  143.491 79.3453 121.809
RightHand  0.169104 2.58578 2.2586
LeftUpLeg  -8.1428 4.05269 -7.52382
LeftLeg  12.0861 21.7695 3.13475
LeftFoot  -4.20042 -0.0619539 -1.52771
LeftToes  -0.281548 1.49739e-006 1.00523e-007
